.
 
http://www.scenetime.com    -  Hottest private tracker on the net. !!!

New release on http://www.scenetime.com

        Seed back for speed


...................................NFO:.................................................[img]http://img706.imageshack.us/img706/7462/3d3294c943f3c34ccbf1bfb.jpg[/img]
[pre]
     _______.     ___      .___  ___.  __    __  .______          ___       __  
    /       |    /   \     |   \/   | |  |  |  | |   _  \        /   \     |  | 
   |   (----`   /  ^  \    |  \  /  | |  |  |  | |  |_)  |      /  ^  \    |  | 
    \   \      /  /_\  \   |  |\/|  | |  |  |  | |      /      /  /_\  \   |  | 
.----)   |    /  _____  \  |  |  |  | |  `--'  | |  |\  \----./  _____  \  |  | 
|_______/    /__/     \__\ |__|  |__|  \______/  | _| `._____/__/     \__\ |__| 
                                                                                

Zookeeper.2011.BRRiP.AC-3.XViD-SAMURAi

ANOTHER QUALiTY SAMURAi RELEASE!!!

Encoder........: SAMURAi
Video Codec....: XViD
Audio Codec....: AC-3
Audio Bitrate..: 448 kb/s
Subtitles......: N/a
Resolution.....: 720 x 304
Runtime........: 1h 41mn
Language.......: English
IMDB Link......: http://www.imdb.com/title/tt1222817/
Genre..........: Comedy | Family | Romance 
Ratings........: 4.4/10 from 5,990 users
Stars..........: Kevin James, Rosario Dawson and Leslie Bibb
Plot...........: A group of zoo animals decide to break their code 
of silence in order to help their lovable zoo keeper find love -- 
without opting to leave his current job for something more illustrious. 


Video Source: Zookeeper.2011.BluRay.720p.DTS.x264-CHD
Audio Source: Zookeeper.2011.BluRay.720p.DTS.x264-CHD
 
Format                           : AVI
Format/Info                      : Audio Video Interleave
File size                        : 1.37 GiB
Duration                         : 1h 41mn
Overall bit rate                 : 1 925 Kbps
Writing application              : Nandub v1.0rc2
Writing library                  : Nandub build 1852/release

Video
ID                               : 0
Format                           : MPEG-4 Visual
Format profile                   : Advanced Simple@L5
Format settings, BVOP            : 2
Format settings, QPel            : No
Format settings, GMC             : No warppoints
Format settings, Matrix          : Default (H.263)
Muxing mode                      : Packed bitstream
Codec ID                         : XVID
Codec ID/Hint                    : XviD
Duration                         : 1h 41mn
Bit rate                         : 1 468 Kbps
Width                            : 720 pixels
Height                           : 304 pixels
Display aspect ratio             : 2.35:1
Frame rate                       : 23.976 fps
Color space                      : YUV
Chroma subsampling               : 4:2:0
Bit depth                        : 8 bits
Scan type                        : Progressive
Compression mode                 : Lossy
Bits/(Pixel*Frame)               : 0.280
Stream size                      : 1.04 GiB (76%)
Writing library                  : XviD 64

Audio
ID                               : 1
Format                           : AC-3
Format/Info                      : Audio Coding 3
Mode extension                   : CM (complete main)
Codec ID                         : 2000
Duration                         : 1h 41mn
Bit rate mode                    : Constant
Bit rate                         : 448 Kbps
Channel(s)                       : 6 channels
Channel positions                : Front: L C R, Side: L R, LFE
Sampling rate                    : 48.0 KHz
Bit depth                        : 16 bits
Compression mode                 : Lossy
Stream size                      : 326 MiB (23%)
Alignment                        : Split accross interleaves
Interleave, duration             : 42 ms (1.00 video frame)
Interleave, preload duration     : 500 ms




Release Notes:
Here we go with a nice BRRiP of "Zookeeper 2011" Very nice quality didn't 
do to much just a few filters. now im not santi, or imagine, or cm8 but im
doing my best to provide quality releases to the people!



Screenshots:
[img]http://img825.imageshack.us/img825/1751/vlcsnap2011091921h25m58.png[/img]
[img]http://img90.imageshack.us/img90/8572/vlcsnap2011091921h26m29.png[/img]
[img]http://img43.imageshack.us/img43/2744/vlcsnap2011091921h27m11.png[/img]
[img]http://img3.imageshack.us/img3/4242/vlcsnap2011091921h27m44.png[/img]
[img]http://img819.imageshack.us/img819/2545/vlcsnap2011091921h28m36.png[/img]
[img]http://img833.imageshack.us/img833/381/vlcsnap2011091921h28m45.png[/img]



Greetz:
ViSiON, SiC, SANTi, IMAGiNE, MEM, LKRG, DTRG, FLAWL3SS, WBZ, NPW,
CM8, UnKnown, ETRG, SaM, Blackjesus, NOiR, EP1C, EMBER...and other p2p
groups past and present good job!

[/pre]